<svg xmlns="http://www.w3.org/2000/svg" xmlns:xlink="http://www.w3.org/1999/xlink" width="40" zoomAndPan="magnify" viewBox="0 0 30 30.000001" height="40" preserveAspectRatio="xMidYMid meet" version="1.0"><defs><clipPath id="145e931141"><path d="M 2 1.453125 L 15 1.453125 L 15 27.582031 L 2 27.582031 Z M 2 1.453125 " clip-rule="nonzero"/></clipPath><clipPath id="75cddfcbe2"><path d="M 15 1.453125 L 28.066406 1.453125 L 28.066406 27.582031 L 15 27.582031 Z M 15 1.453125 " clip-rule="nonzero"/></clipPath><clipPath id="8ceca17f9d"><path d="M 2 0.726562 L 15 0.726562 L 15 26.855469 L 2 26.855469 Z M 2 0.726562 " clip-rule="nonzero"/></clipPath><clipPath id="2ea84ff477"><path d="M 15 0.726562 L 28.066406 0.726562 L 28.066406 26.855469 L 15 26.855469 Z M 15 0.726562 " clip-rule="nonzero"/></clipPath><clipPath id="a85891d315"><path d="M 2 2.175781 L 15 2.175781 L 15 28.304688 L 2 28.304688 Z M 2 2.175781 " clip-rule="nonzero"/></clipPath><clipPath id="b86e7bc6e2"><path d="M 15 2.175781 L 28.066406 2.175781 L 28.066406 28.304688 L 15 28.304688 Z M 15 2.175781 " clip-rule="nonzero"/></clipPath></defs><path fill="#ab0518" d="M 8.382812 22.921875 C 8.304688 23.136719 8.414062 23.378906 8.625 23.457031 C 8.839844 23.535156 9.078125 23.421875 9.160156 23.207031 C 9.578125 22.089844 10.832031 21.519531 11.957031 21.9375 C 12.175781 22.015625 12.410156 21.902344 12.492188 21.6875 C 12.574219 21.472656 12.46875 21.234375 12.25 21.152344 C 10.699219 20.578125 8.964844 21.371094 8.382812 22.921875 Z M 8.382812 22.921875 " fill-opacity="1" fill-rule="nonzero"/><g clip-path="url(#145e931141)"><path fill="#ab0518" d="M 13.730469 1.839844 C 13.164062 1.46875 12.441406 1.445312 11.605469 1.761719 C 11.539062 1.78125 10.148438 2.277344 9.246094 3.132812 C 9.1875 3.128906 9.136719 3.121094 9.078125 3.121094 C 7.417969 3.121094 6.074219 4.46875 6.074219 6.128906 C 6.074219 6.523438 6.152344 6.90625 6.304688 7.265625 C 4.839844 7.671875 3.757812 8.996094 3.757812 10.585938 C 3.757812 10.886719 3.8125 11.183594 3.886719 11.472656 C 2.839844 12.089844 2.171875 13.21875 2.171875 14.449219 C 2.171875 15.335938 2.515625 16.140625 3.074219 16.75 C 2.871094 17.199219 2.753906 17.6875 2.753906 18.1875 C 2.753906 19.578125 3.597656 20.816406 4.847656 21.355469 C 4.722656 21.683594 4.65625 22.042969 4.65625 22.398438 C 4.65625 24.058594 6.003906 25.402344 7.664062 25.402344 C 7.738281 25.402344 7.820312 25.386719 7.902344 25.378906 C 8.355469 26.621094 9.699219 27.496094 11.261719 27.496094 C 13.207031 27.496094 14.792969 26.144531 14.792969 24.492188 L 14.792969 21.554688 C 14.792969 21.554688 14.792969 21.554688 14.792969 21.546875 L 14.792969 10.425781 L 14.789062 3.929688 C 14.789062 3.871094 14.699219 2.472656 13.730469 1.839844 Z M 13.964844 8.367188 C 13.417969 7.789062 12.644531 7.421875 11.785156 7.421875 C 11.558594 7.421875 11.371094 7.609375 11.371094 7.839844 C 11.371094 8.066406 11.558594 8.253906 11.785156 8.253906 C 12.988281 8.253906 13.964844 9.230469 13.964844 10.429688 L 13.964844 19.492188 C 13.417969 18.914062 12.644531 18.546875 11.785156 18.546875 C 11.558594 18.542969 11.371094 18.730469 11.371094 18.957031 C 11.371094 19.1875 11.558594 19.371094 11.785156 19.371094 C 12.988281 19.371094 13.964844 20.351562 13.964844 21.546875 L 13.964844 24.492188 C 13.964844 25.6875 12.753906 26.667969 11.261719 26.667969 C 9.941406 26.667969 8.820312 25.902344 8.601562 24.855469 C 8.550781 24.632812 8.328125 24.492188 8.105469 24.53125 C 8.105469 24.53125 8.101562 24.53125 8.097656 24.53125 C 7.957031 24.5625 7.8125 24.574219 7.664062 24.574219 C 6.460938 24.574219 5.484375 23.601562 5.484375 22.398438 C 5.484375 22.019531 5.585938 21.648438 5.769531 21.320312 C 5.78125 21.304688 5.785156 21.28125 5.789062 21.257812 C 5.792969 21.246094 5.804688 21.238281 5.8125 21.226562 C 5.8125 21.214844 5.8125 21.199219 5.8125 21.183594 C 5.816406 21.164062 5.816406 21.148438 5.816406 21.125 C 5.816406 21.089844 5.816406 21.058594 5.8125 21.027344 C 5.804688 21.007812 5.800781 20.992188 5.789062 20.976562 C 5.78125 20.941406 5.769531 20.917969 5.746094 20.890625 C 5.738281 20.871094 5.722656 20.855469 5.707031 20.839844 C 5.683594 20.816406 5.660156 20.796875 5.640625 20.777344 C 5.628906 20.769531 5.625 20.765625 5.613281 20.757812 C 5.597656 20.746094 5.578125 20.746094 5.558594 20.738281 C 5.546875 20.730469 5.535156 20.726562 5.519531 20.71875 C 4.378906 20.40625 3.585938 19.363281 3.585938 18.1875 C 3.585938 17.894531 3.652344 17.609375 3.746094 17.339844 C 4.285156 17.691406 4.929688 17.90625 5.628906 17.90625 C 5.855469 17.90625 6.042969 17.722656 6.042969 17.492188 C 6.042969 17.257812 5.855469 17.070312 5.628906 17.070312 C 4.175781 17.070312 3.003906 15.894531 3.003906 14.445312 C 3.003906 13.425781 3.597656 12.5 4.523438 12.066406 C 4.53125 12.0625 4.535156 12.058594 4.542969 12.054688 C 4.886719 11.898438 5.25 11.820312 5.628906 11.820312 C 5.855469 11.820312 6.042969 11.636719 6.042969 11.40625 C 6.042969 11.175781 5.855469 10.996094 5.628906 10.996094 C 5.292969 10.996094 4.972656 11.058594 4.65625 11.152344 C 4.613281 10.964844 4.585938 10.777344 4.585938 10.585938 C 4.585938 9.136719 5.769531 7.960938 7.214844 7.960938 C 8.214844 7.960938 9.113281 8.515625 9.5625 9.414062 C 9.667969 9.617188 9.914062 9.695312 10.121094 9.59375 C 10.324219 9.492188 10.40625 9.246094 10.300781 9.039062 C 9.714844 7.863281 8.53125 7.128906 7.214844 7.128906 C 7.199219 7.128906 7.1875 7.132812 7.171875 7.132812 C 7.003906 6.824219 6.902344 6.484375 6.902344 6.125 C 6.902344 4.925781 7.878906 3.949219 9.082031 3.949219 C 9.871094 3.949219 10.597656 4.378906 10.984375 5.070312 C 11.160156 5.390625 11.253906 5.757812 11.253906 6.125 C 11.253906 6.351562 11.445312 6.539062 11.671875 6.539062 C 11.898438 6.539062 12.089844 6.351562 12.089844 6.125 C 12.089844 5.613281 11.957031 5.109375 11.710938 4.667969 C 11.375 4.074219 10.867188 3.628906 10.269531 3.367188 C 11.003906 2.855469 11.867188 2.550781 11.886719 2.539062 C 12.472656 2.320312 12.945312 2.316406 13.277344 2.535156 C 13.886719 2.933594 13.964844 3.953125 13.964844 3.953125 Z M 13.964844 8.367188 " fill-opacity="1" fill-rule="nonzero"/></g><path fill="#ab0518" d="M 9.484375 12.414062 C 9.441406 12.195312 9.226562 12.046875 9 12.089844 C 8.773438 12.132812 8.628906 12.351562 8.675781 12.574219 C 8.832031 13.40625 9.273438 14.136719 9.898438 14.691406 C 9.882812 14.742188 9.875 14.792969 9.878906 14.851562 C 9.949219 16.050781 9.035156 17.085938 7.835938 17.15625 C 7.605469 17.167969 7.433594 17.367188 7.445312 17.59375 C 7.460938 17.8125 7.644531 17.984375 7.859375 17.984375 C 7.867188 17.984375 7.875 17.984375 7.890625 17.984375 C 9.394531 17.894531 10.5625 16.699219 10.6875 15.234375 C 11.21875 15.5 11.792969 15.640625 12.378906 15.640625 C 12.621094 15.640625 12.859375 15.621094 13.09375 15.574219 C 13.316406 15.53125 13.464844 15.316406 13.421875 15.089844 C 13.382812 14.867188 13.15625 14.714844 12.9375 14.761719 C 12.160156 14.910156 11.375 14.75 10.730469 14.304688 C 10.074219 13.859375 9.632812 13.1875 9.484375 12.414062 Z M 9.484375 12.414062 " fill-opacity="1" fill-rule="nonzero"/><path fill="#ab0518" d="M 18.039062 21.15625 C 17.828125 21.234375 17.71875 21.472656 17.796875 21.691406 C 17.875 21.90625 18.117188 22.019531 18.332031 21.941406 C 19.457031 21.519531 20.714844 22.09375 21.132812 23.210938 C 21.214844 23.421875 21.449219 23.535156 21.664062 23.457031 C 21.882812 23.378906 21.988281 23.136719 21.90625 22.917969 C 21.332031 21.371094 19.59375 20.578125 18.039062 21.15625 Z M 18.039062 21.15625 " fill-opacity="1" fill-rule="nonzero"/><g clip-path="url(#75cddfcbe2)"><path fill="#ab0518" d="M 28.121094 14.449219 C 28.121094 13.21875 27.453125 12.089844 26.402344 11.472656 C 26.476562 11.183594 26.53125 10.886719 26.53125 10.585938 C 26.53125 8.996094 25.453125 7.671875 23.992188 7.265625 C 24.136719 6.90625 24.21875 6.523438 24.21875 6.128906 C 24.21875 4.472656 22.871094 3.121094 21.214844 3.121094 C 21.15625 3.121094 21.105469 3.128906 21.042969 3.132812 C 20.140625 2.277344 18.75 1.78125 18.6875 1.761719 C 17.847656 1.445312 17.128906 1.46875 16.558594 1.839844 C 15.59375 2.472656 15.503906 3.871094 15.503906 3.929688 L 15.5 10.425781 L 15.5 21.546875 C 15.5 21.554688 15.5 21.554688 15.5 21.554688 L 15.5 24.492188 C 15.5 26.144531 17.085938 27.496094 19.03125 27.496094 C 20.59375 27.496094 21.9375 26.621094 22.390625 25.378906 C 22.46875 25.386719 22.550781 25.402344 22.625 25.402344 C 24.285156 25.402344 25.632812 24.058594 25.632812 22.398438 C 25.632812 22.042969 25.566406 21.683594 25.441406 21.355469 C 26.695312 20.816406 27.535156 19.574219 27.535156 18.1875 C 27.535156 17.6875 27.425781 17.199219 27.21875 16.75 C 27.777344 16.140625 28.121094 15.335938 28.121094 14.449219 Z M 24.769531 20.71875 C 24.753906 20.726562 24.746094 20.730469 24.730469 20.738281 C 24.714844 20.746094 24.691406 20.746094 24.675781 20.757812 C 24.664062 20.765625 24.660156 20.769531 24.648438 20.777344 C 24.628906 20.796875 24.605469 20.816406 24.585938 20.839844 C 24.570312 20.855469 24.550781 20.871094 24.542969 20.890625 C 24.523438 20.917969 24.515625 20.941406 24.5 20.976562 C 24.492188 20.992188 24.484375 21.007812 24.480469 21.03125 C 24.472656 21.058594 24.472656 21.09375 24.472656 21.125 C 24.472656 21.148438 24.472656 21.167969 24.480469 21.183594 C 24.480469 21.203125 24.472656 21.21875 24.480469 21.230469 C 24.484375 21.242188 24.496094 21.25 24.5 21.261719 C 24.511719 21.28125 24.511719 21.304688 24.523438 21.320312 C 24.707031 21.648438 24.808594 22.019531 24.808594 22.398438 C 24.808594 23.601562 23.824219 24.574219 22.625 24.574219 C 22.480469 24.574219 22.332031 24.5625 22.191406 24.53125 L 22.183594 24.53125 C 21.964844 24.488281 21.742188 24.632812 21.691406 24.851562 C 21.472656 25.902344 20.351562 26.667969 19.03125 26.667969 C 17.535156 26.667969 16.328125 25.6875 16.328125 24.492188 L 16.328125 21.546875 C 16.328125 20.351562 17.304688 19.371094 18.503906 19.371094 C 18.734375 19.371094 18.921875 19.1875 18.921875 18.957031 C 18.921875 18.730469 18.738281 18.539062 18.503906 18.539062 C 17.644531 18.539062 16.871094 18.910156 16.328125 19.488281 L 16.328125 10.429688 C 16.328125 9.226562 17.304688 8.25 18.503906 8.25 C 18.734375 8.25 18.921875 8.066406 18.921875 7.835938 C 18.921875 7.605469 18.738281 7.417969 18.503906 7.417969 C 17.644531 7.417969 16.871094 7.785156 16.328125 8.359375 L 16.328125 3.953125 C 16.328125 3.953125 16.398438 2.933594 17.019531 2.535156 C 17.347656 2.316406 17.820312 2.320312 18.410156 2.539062 C 18.425781 2.550781 19.289062 2.855469 20.027344 3.367188 C 19.425781 3.628906 18.910156 4.074219 18.582031 4.667969 C 18.339844 5.113281 18.207031 5.617188 18.207031 6.125 C 18.207031 6.351562 18.390625 6.539062 18.625 6.539062 C 18.851562 6.539062 19.039062 6.351562 19.039062 6.125 C 19.039062 5.757812 19.132812 5.390625 19.3125 5.070312 C 19.691406 4.382812 20.421875 3.953125 21.214844 3.953125 C 22.410156 3.953125 23.390625 4.925781 23.390625 6.128906 C 23.390625 6.484375 23.285156 6.824219 23.125 7.136719 C 23.105469 7.136719 23.089844 7.132812 23.078125 7.132812 C 21.757812 7.132812 20.578125 7.863281 19.988281 9.042969 C 19.886719 9.246094 19.96875 9.492188 20.171875 9.59375 C 20.375 9.695312 20.625 9.617188 20.726562 9.414062 C 21.175781 8.515625 22.074219 7.960938 23.078125 7.960938 C 24.523438 7.960938 25.703125 9.136719 25.703125 10.585938 C 25.703125 10.777344 25.671875 10.964844 25.632812 11.152344 C 25.324219 11.058594 25.003906 10.996094 24.660156 10.996094 C 24.433594 10.996094 24.242188 11.179688 24.242188 11.410156 C 24.242188 11.640625 24.433594 11.824219 24.660156 11.824219 C 25.042969 11.824219 25.40625 11.902344 25.746094 12.058594 C 25.753906 12.058594 25.757812 12.066406 25.765625 12.070312 L 25.769531 12.070312 C 26.695312 12.5 27.285156 13.429688 27.285156 14.449219 C 27.285156 15.898438 26.109375 17.074219 24.660156 17.074219 C 24.433594 17.074219 24.242188 17.257812 24.242188 17.496094 C 24.242188 17.722656 24.433594 17.910156 24.660156 17.910156 C 25.359375 17.910156 26.003906 17.695312 26.542969 17.34375 C 26.640625 17.605469 26.703125 17.894531 26.703125 18.1875 C 26.703125 19.363281 25.910156 20.40625 24.769531 20.71875 Z M 24.769531 20.71875 " fill-opacity="1" fill-rule="nonzero"/></g><path fill="#ab0518" d="M 22.457031 17.15625 C 21.257812 17.085938 20.34375 16.050781 20.410156 14.851562 C 20.417969 14.792969 20.410156 14.742188 20.390625 14.691406 C 21.019531 14.140625 21.460938 13.410156 21.621094 12.574219 C 21.664062 12.351562 21.519531 12.132812 21.292969 12.089844 C 21.066406 12.046875 20.847656 12.195312 20.804688 12.414062 C 20.65625 13.1875 20.214844 13.859375 19.5625 14.304688 C 18.910156 14.75 18.125 14.910156 17.355469 14.761719 C 17.136719 14.714844 16.90625 14.867188 16.867188 15.089844 C 16.824219 15.316406 16.972656 15.53125 17.199219 15.574219 C 17.4375 15.621094 17.675781 15.644531 17.914062 15.644531 C 18.5 15.644531 19.078125 15.503906 19.605469 15.234375 C 19.730469 16.699219 20.894531 17.898438 22.40625 17.988281 C 22.417969 17.988281 22.421875 17.988281 22.429688 17.988281 C 22.648438 17.988281 22.832031 17.816406 22.847656 17.597656 C 22.855469 17.367188 22.6875 17.167969 22.457031 17.15625 Z M 22.457031 17.15625 " fill-opacity="1" fill-rule="nonzero"/><path fill="#ab0518" d="M 8.382812 22.195312 C 8.304688 22.410156 8.414062 22.652344 8.625 22.730469 C 8.839844 22.8125 9.078125 22.699219 9.160156 22.484375 C 9.578125 21.363281 10.832031 20.792969 11.957031 21.210938 C 12.175781 21.289062 12.410156 21.175781 12.492188 20.960938 C 12.574219 20.746094 12.46875 20.507812 12.25 20.425781 C 10.699219 19.851562 8.964844 20.644531 8.382812 22.195312 Z M 8.382812 22.195312 " fill-opacity="1" fill-rule="nonzero"/><g clip-path="url(#8ceca17f9d)"><path fill="#ab0518" d="M 13.730469 1.113281 C 13.164062 0.742188 12.441406 0.71875 11.605469 1.035156 C 11.539062 1.058594 10.148438 1.554688 9.246094 2.40625 C 9.1875 2.402344 9.136719 2.394531 9.078125 2.394531 C 7.417969 2.394531 6.074219 3.742188 6.074219 5.402344 C 6.074219 5.796875 6.152344 6.179688 6.304688 6.539062 C 4.839844 6.945312 3.757812 8.269531 3.757812 9.859375 C 3.757812 10.160156 3.8125 10.457031 3.886719 10.746094 C 2.839844 11.363281 2.171875 12.492188 2.171875 13.722656 C 2.171875 14.613281 2.515625 15.414062 3.074219 16.027344 C 2.871094 16.472656 2.753906 16.960938 2.753906 17.460938 C 2.753906 18.851562 3.597656 20.089844 4.847656 20.628906 C 4.722656 20.957031 4.65625 21.316406 4.65625 21.671875 C 4.65625 23.332031 6.003906 24.675781 7.664062 24.675781 C 7.738281 24.675781 7.820312 24.660156 7.902344 24.652344 C 8.355469 25.898438 9.699219 26.769531 11.261719 26.769531 C 13.207031 26.769531 14.792969 25.421875 14.792969 23.765625 L 14.792969 20.828125 C 14.792969 20.828125 14.792969 20.828125 14.792969 20.820312 L 14.792969 9.707031 C 14.792969 9.707031 14.792969 9.707031 14.792969 9.703125 L 14.792969 9.699219 L 14.789062 3.203125 C 14.789062 3.144531 14.699219 1.746094 13.730469 1.113281 Z M 13.964844 7.640625 C 13.417969 7.0625 12.644531 6.699219 11.785156 6.699219 C 11.558594 6.699219 11.371094 6.882812 11.371094 7.113281 C 11.371094 7.339844 11.558594 7.527344 11.785156 7.527344 C 12.988281 7.527344 13.964844 8.503906 13.964844 9.707031 L 13.964844 18.765625 C 13.417969 18.1875 12.644531 17.820312 11.785156 17.820312 C 11.558594 17.816406 11.371094 18.003906 11.371094 18.230469 C 11.371094 18.460938 11.558594 18.644531 11.785156 18.644531 C 12.988281 18.644531 13.964844 19.625 13.964844 20.820312 L 13.964844 23.765625 C 13.964844 24.960938 12.753906 25.941406 11.261719 25.941406 C 9.941406 25.941406 8.820312 25.175781 8.601562 24.128906 C 8.550781 23.90625 8.328125 23.765625 8.105469 23.804688 C 8.105469 23.804688 8.101562 23.804688 8.097656 23.804688 C 7.957031 23.839844 7.8125 23.851562 7.664062 23.851562 C 6.460938 23.851562 5.484375 22.875 5.484375 21.671875 C 5.484375 21.292969 5.585938 20.921875 5.769531 20.59375 C 5.78125 20.578125 5.785156 20.554688 5.789062 20.53125 C 5.792969 20.519531 5.804688 20.515625 5.8125 20.503906 C 5.8125 20.492188 5.8125 20.472656 5.8125 20.457031 C 5.816406 20.4375 5.816406 20.421875 5.816406 20.398438 C 5.816406 20.363281 5.816406 20.332031 5.8125 20.300781 C 5.804688 20.28125 5.800781 20.265625 5.789062 20.25 C 5.78125 20.214844 5.769531 20.191406 5.746094 20.164062 C 5.738281 20.144531 5.722656 20.132812 5.707031 20.113281 C 5.683594 20.089844 5.660156 20.074219 5.640625 20.050781 C 5.628906 20.042969 5.625 20.039062 5.613281 20.03125 C 5.597656 20.019531 5.578125 20.019531 5.558594 20.011719 C 5.546875 20.007812 5.535156 20 5.519531 19.996094 C 4.378906 19.679688 3.585938 18.640625 3.585938 17.460938 C 3.585938 17.167969 3.652344 16.882812 3.746094 16.613281 C 4.285156 16.964844 4.929688 17.179688 5.628906 17.179688 C 5.855469 17.179688 6.042969 16.996094 6.042969 16.765625 C 6.042969 16.535156 5.855469 16.34375 5.628906 16.34375 C 4.175781 16.34375 3.003906 15.167969 3.003906 13.71875 C 3.003906 12.703125 3.597656 11.773438 4.523438 11.339844 C 4.53125 11.335938 4.535156 11.332031 4.542969 11.328125 C 4.886719 11.175781 5.25 11.097656 5.628906 11.097656 C 5.855469 11.097656 6.042969 10.910156 6.042969 10.679688 C 6.042969 10.453125 5.855469 10.273438 5.628906 10.273438 C 5.292969 10.273438 4.972656 10.332031 4.65625 10.425781 C 4.613281 10.238281 4.585938 10.050781 4.585938 9.859375 C 4.585938 8.410156 5.769531 7.234375 7.214844 7.234375 C 8.214844 7.234375 9.113281 7.789062 9.5625 8.6875 C 9.667969 8.894531 9.914062 8.972656 10.121094 8.871094 C 10.324219 8.769531 10.40625 8.519531 10.300781 8.316406 C 9.714844 7.136719 8.53125 6.40625 7.214844 6.40625 C 7.199219 6.40625 7.1875 6.40625 7.171875 6.40625 C 7.003906 6.097656 6.902344 5.757812 6.902344 5.398438 C 6.902344 4.199219 7.878906 3.222656 9.082031 3.222656 C 9.871094 3.222656 10.597656 3.652344 10.984375 4.34375 C 11.160156 4.664062 11.253906 5.03125 11.253906 5.398438 C 11.253906 5.625 11.445312 5.816406 11.671875 5.816406 C 11.898438 5.816406 12.089844 5.625 12.089844 5.398438 C 12.089844 4.890625 11.957031 4.382812 11.710938 3.941406 C 11.375 3.351562 10.867188 2.902344 10.269531 2.640625 C 11.003906 2.132812 11.867188 1.824219 11.886719 1.816406 C 12.472656 1.59375 12.945312 1.589844 13.277344 1.808594 C 13.886719 2.207031 13.964844 3.226562 13.964844 3.226562 Z M 13.964844 7.640625 " fill-opacity="1" fill-rule="nonzero"/></g><path fill="#ab0518" d="M 9.484375 11.6875 C 9.441406 11.46875 9.226562 11.320312 9 11.363281 C 8.773438 11.40625 8.628906 11.625 8.675781 11.847656 C 8.832031 12.679688 9.273438 13.410156 9.898438 13.964844 C 9.882812 14.015625 9.875 14.070312 9.878906 14.125 C 9.949219 15.324219 9.035156 16.359375 7.835938 16.433594 C 7.605469 16.445312 7.433594 16.640625 7.445312 16.867188 C 7.460938 17.089844 7.644531 17.257812 7.859375 17.257812 C 7.867188 17.257812 7.875 17.257812 7.890625 17.257812 C 9.394531 17.167969 10.5625 15.972656 10.6875 14.507812 C 11.21875 14.773438 11.792969 14.914062 12.378906 14.914062 C 12.621094 14.914062 12.859375 14.894531 13.09375 14.847656 C 13.316406 14.804688 13.464844 14.589844 13.421875 14.363281 C 13.382812 14.140625 13.15625 13.992188 12.9375 14.035156 C 12.160156 14.183594 11.375 14.023438 10.730469 13.578125 C 10.074219 13.132812 9.632812 12.464844 9.484375 11.6875 Z M 9.484375 11.6875 " fill-opacity="1" fill-rule="nonzero"/><path fill="#ab0518" d="M 18.039062 20.429688 C 17.828125 20.507812 17.71875 20.746094 17.796875 20.964844 C 17.875 21.179688 18.117188 21.292969 18.332031 21.214844 C 19.457031 20.792969 20.714844 21.367188 21.132812 22.484375 C 21.214844 22.699219 21.449219 22.8125 21.664062 22.730469 C 21.882812 22.652344 21.988281 22.410156 21.90625 22.191406 C 21.332031 20.644531 19.59375 19.851562 18.039062 20.429688 Z M 18.039062 20.429688 " fill-opacity="1" fill-rule="nonzero"/><g clip-path="url(#2ea84ff477)"><path fill="#ab0518" d="M 28.121094 13.722656 C 28.121094 12.492188 27.453125 11.363281 26.402344 10.746094 C 26.476562 10.457031 26.53125 10.160156 26.53125 9.859375 C 26.53125 8.269531 25.453125 6.945312 23.992188 6.539062 C 24.136719 6.179688 24.21875 5.796875 24.21875 5.402344 C 24.21875 3.746094 22.871094 2.394531 21.214844 2.394531 C 21.15625 2.394531 21.105469 2.402344 21.042969 2.40625 C 20.140625 1.554688 18.75 1.058594 18.6875 1.035156 C 17.847656 0.71875 17.128906 0.742188 16.558594 1.113281 C 15.59375 1.746094 15.503906 3.144531 15.503906 3.203125 L 15.5 9.699219 L 15.5 9.703125 C 15.5 9.703125 15.5 9.707031 15.5 9.707031 L 15.5 20.820312 C 15.5 20.828125 15.5 20.828125 15.5 20.828125 L 15.5 23.765625 C 15.5 25.421875 17.085938 26.769531 19.03125 26.769531 C 20.59375 26.769531 21.9375 25.898438 22.390625 24.652344 C 22.46875 24.660156 22.550781 24.675781 22.625 24.675781 C 24.285156 24.675781 25.632812 23.332031 25.632812 21.671875 C 25.632812 21.316406 25.566406 20.957031 25.441406 20.628906 C 26.695312 20.089844 27.535156 18.847656 27.535156 17.460938 C 27.535156 16.960938 27.425781 16.472656 27.21875 16.027344 C 27.777344 15.414062 28.121094 14.613281 28.121094 13.722656 Z M 24.769531 19.996094 C 24.753906 20 24.746094 20.007812 24.730469 20.011719 C 24.714844 20.019531 24.691406 20.019531 24.675781 20.03125 C 24.664062 20.039062 24.660156 20.042969 24.648438 20.050781 C 24.628906 20.074219 24.605469 20.089844 24.585938 20.113281 C 24.570312 20.132812 24.550781 20.144531 24.542969 20.164062 C 24.523438 20.191406 24.515625 20.214844 24.5 20.25 C 24.492188 20.265625 24.484375 20.28125 24.480469 20.304688 C 24.472656 20.335938 24.472656 20.367188 24.472656 20.402344 C 24.472656 20.425781 24.472656 20.441406 24.480469 20.460938 C 24.480469 20.476562 24.472656 20.492188 24.480469 20.503906 C 24.484375 20.515625 24.496094 20.523438 24.5 20.535156 C 24.511719 20.554688 24.511719 20.578125 24.523438 20.59375 C 24.707031 20.921875 24.808594 21.292969 24.808594 21.671875 C 24.808594 22.875 23.824219 23.851562 22.625 23.851562 C 22.480469 23.851562 22.332031 23.839844 22.191406 23.804688 L 22.183594 23.804688 C 21.964844 23.761719 21.742188 23.90625 21.691406 24.125 C 21.472656 25.175781 20.351562 25.941406 19.03125 25.941406 C 17.535156 25.941406 16.328125 24.960938 16.328125 23.765625 L 16.328125 20.820312 C 16.328125 19.625 17.304688 18.644531 18.503906 18.644531 C 18.734375 18.644531 18.921875 18.460938 18.921875 18.230469 C 18.921875 18.003906 18.738281 17.8125 18.503906 17.8125 C 17.644531 17.8125 16.871094 18.183594 16.328125 18.761719 L 16.328125 9.703125 C 16.328125 8.5 17.304688 7.523438 18.503906 7.523438 C 18.734375 7.523438 18.921875 7.339844 18.921875 7.109375 C 18.921875 6.878906 18.738281 6.691406 18.503906 6.691406 C 17.644531 6.691406 16.871094 7.058594 16.328125 7.636719 L 16.328125 3.226562 C 16.328125 3.226562 16.398438 2.207031 17.019531 1.808594 C 17.347656 1.589844 17.820312 1.59375 18.410156 1.816406 C 18.425781 1.824219 19.289062 2.132812 20.027344 2.640625 C 19.425781 2.902344 18.910156 3.351562 18.582031 3.941406 C 18.339844 4.386719 18.207031 4.890625 18.207031 5.398438 C 18.207031 5.625 18.390625 5.816406 18.625 5.816406 C 18.851562 5.816406 19.039062 5.625 19.039062 5.398438 C 19.039062 5.03125 19.132812 4.664062 19.3125 4.34375 C 19.691406 3.65625 20.421875 3.226562 21.214844 3.226562 C 22.410156 3.226562 23.390625 4.199219 23.390625 5.402344 C 23.390625 5.761719 23.285156 6.101562 23.125 6.410156 C 23.105469 6.410156 23.089844 6.40625 23.078125 6.40625 C 21.757812 6.40625 20.578125 7.136719 19.988281 8.316406 C 19.886719 8.519531 19.96875 8.769531 20.171875 8.871094 C 20.375 8.972656 20.625 8.890625 20.726562 8.6875 C 21.175781 7.789062 22.074219 7.234375 23.078125 7.234375 C 24.523438 7.234375 25.703125 8.410156 25.703125 9.859375 C 25.703125 10.050781 25.671875 10.238281 25.632812 10.425781 C 25.324219 10.332031 25.003906 10.273438 24.660156 10.273438 C 24.433594 10.273438 24.242188 10.453125 24.242188 10.683594 C 24.242188 10.914062 24.433594 11.097656 24.660156 11.097656 C 25.042969 11.097656 25.40625 11.175781 25.746094 11.332031 C 25.753906 11.335938 25.757812 11.339844 25.765625 11.34375 L 25.769531 11.34375 C 26.695312 11.773438 27.285156 12.703125 27.285156 13.722656 C 27.285156 15.171875 26.109375 16.347656 24.660156 16.347656 C 24.433594 16.347656 24.242188 16.535156 24.242188 16.769531 C 24.242188 16.996094 24.433594 17.183594 24.660156 17.183594 C 25.359375 17.183594 26.003906 16.96875 26.542969 16.617188 C 26.640625 16.878906 26.703125 17.167969 26.703125 17.460938 C 26.703125 18.640625 25.910156 19.679688 24.769531 19.996094 Z M 24.769531 19.996094 " fill-opacity="1" fill-rule="nonzero"/></g><path fill="#ab0518" d="M 22.457031 16.433594 C 21.257812 16.359375 20.34375 15.324219 20.410156 14.125 C 20.417969 14.070312 20.410156 14.015625 20.390625 13.964844 C 21.019531 13.414062 21.460938 12.683594 21.621094 11.847656 C 21.664062 11.625 21.519531 11.40625 21.292969 11.363281 C 21.066406 11.320312 20.847656 11.46875 20.804688 11.6875 C 20.65625 12.464844 20.214844 13.132812 19.5625 13.578125 C 18.910156 14.023438 18.125 14.183594 17.355469 14.035156 C 17.136719 13.992188 16.90625 14.140625 16.867188 14.363281 C 16.824219 14.589844 16.972656 14.804688 17.199219 14.851562 C 17.4375 14.894531 17.675781 14.917969 17.914062 14.917969 C 18.5 14.917969 19.078125 14.777344 19.605469 14.511719 C 19.730469 15.972656 20.894531 17.171875 22.40625 17.261719 C 22.417969 17.261719 22.421875 17.261719 22.429688 17.261719 C 22.648438 17.261719 22.832031 17.089844 22.847656 16.871094 C 22.855469 16.640625 22.6875 16.445312 22.457031 16.433594 Z M 22.457031 16.433594 " fill-opacity="1" fill-rule="nonzero"/><path fill="#ab0518" d="M 8.382812 23.648438 C 8.304688 23.863281 8.414062 24.105469 8.625 24.183594 C 8.839844 24.261719 9.078125 24.148438 9.160156 23.933594 C 9.578125 22.816406 10.832031 22.246094 11.957031 22.664062 C 12.175781 22.742188 12.410156 22.628906 12.492188 22.414062 C 12.574219 22.199219 12.46875 21.960938 12.25 21.878906 C 10.699219 21.304688 8.964844 22.097656 8.382812 23.648438 Z M 8.382812 23.648438 " fill-opacity="1" fill-rule="nonzero"/><g clip-path="url(#a85891d315)"><path fill="#ab0518" d="M 13.730469 2.566406 C 13.164062 2.195312 12.441406 2.171875 11.605469 2.488281 C 11.539062 2.507812 10.148438 3.003906 9.246094 3.859375 C 9.1875 3.855469 9.136719 3.847656 9.078125 3.847656 C 7.417969 3.847656 6.074219 5.195312 6.074219 6.855469 C 6.074219 7.25 6.152344 7.632812 6.304688 7.992188 C 4.839844 8.394531 3.757812 9.71875 3.757812 11.3125 C 3.757812 11.613281 3.8125 11.910156 3.886719 12.199219 C 2.839844 12.816406 2.171875 13.945312 2.171875 15.175781 C 2.171875 16.0625 2.515625 16.863281 3.074219 17.476562 C 2.871094 17.925781 2.753906 18.414062 2.753906 18.910156 C 2.753906 20.300781 3.597656 21.542969 4.847656 22.082031 C 4.722656 22.410156 4.65625 22.765625 4.65625 23.125 C 4.65625 24.785156 6.003906 26.128906 7.664062 26.128906 C 7.738281 26.128906 7.820312 26.113281 7.902344 26.105469 C 8.355469 27.347656 9.699219 28.222656 11.261719 28.222656 C 13.207031 28.222656 14.792969 26.871094 14.792969 25.21875 L 14.792969 22.28125 C 14.792969 22.28125 14.792969 22.28125 14.792969 22.273438 L 14.792969 11.15625 C 14.792969 11.15625 14.792969 11.15625 14.792969 11.152344 L 14.789062 4.652344 C 14.789062 4.597656 14.699219 3.199219 13.730469 2.566406 Z M 13.964844 9.09375 C 13.417969 8.515625 12.644531 8.148438 11.785156 8.148438 C 11.558594 8.148438 11.371094 8.335938 11.371094 8.566406 C 11.371094 8.789062 11.558594 8.980469 11.785156 8.980469 C 12.988281 8.980469 13.964844 9.957031 13.964844 11.15625 L 13.964844 20.21875 C 13.417969 19.640625 12.644531 19.273438 11.785156 19.273438 C 11.558594 19.269531 11.371094 19.453125 11.371094 19.679688 C 11.371094 19.914062 11.558594 20.097656 11.785156 20.097656 C 12.988281 20.097656 13.964844 21.078125 13.964844 22.273438 L 13.964844 25.21875 C 13.964844 26.414062 12.753906 27.394531 11.261719 27.394531 C 9.941406 27.394531 8.820312 26.628906 8.601562 25.582031 C 8.550781 25.355469 8.328125 25.21875 8.105469 25.253906 C 8.105469 25.253906 8.101562 25.253906 8.097656 25.253906 C 7.957031 25.289062 7.8125 25.300781 7.664062 25.300781 C 6.460938 25.300781 5.484375 24.324219 5.484375 23.125 C 5.484375 22.742188 5.585938 22.375 5.769531 22.046875 C 5.78125 22.03125 5.785156 22.007812 5.789062 21.984375 C 5.792969 21.972656 5.804688 21.964844 5.8125 21.953125 C 5.8125 21.941406 5.8125 21.925781 5.8125 21.90625 C 5.816406 21.890625 5.816406 21.871094 5.816406 21.851562 C 5.816406 21.816406 5.816406 21.78125 5.8125 21.753906 C 5.804688 21.734375 5.800781 21.714844 5.789062 21.703125 C 5.78125 21.667969 5.769531 21.644531 5.746094 21.617188 C 5.738281 21.597656 5.722656 21.582031 5.707031 21.566406 C 5.683594 21.542969 5.660156 21.523438 5.640625 21.5 C 5.628906 21.496094 5.625 21.488281 5.613281 21.484375 C 5.597656 21.472656 5.578125 21.472656 5.558594 21.464844 C 5.546875 21.457031 5.535156 21.453125 5.519531 21.445312 C 4.378906 21.132812 3.585938 20.089844 3.585938 18.910156 C 3.585938 18.621094 3.652344 18.332031 3.746094 18.066406 C 4.285156 18.417969 4.929688 18.632812 5.628906 18.632812 C 5.855469 18.632812 6.042969 18.445312 6.042969 18.21875 C 6.042969 17.984375 5.855469 17.796875 5.628906 17.796875 C 4.175781 17.796875 3.003906 16.621094 3.003906 15.171875 C 3.003906 14.152344 3.597656 13.222656 4.523438 12.792969 C 4.53125 12.789062 4.535156 12.78125 4.542969 12.78125 C 4.886719 12.625 5.25 12.546875 5.628906 12.546875 C 5.855469 12.546875 6.042969 12.363281 6.042969 12.132812 C 6.042969 11.902344 5.855469 11.722656 5.628906 11.722656 C 5.292969 11.722656 4.972656 11.785156 4.65625 11.878906 C 4.613281 11.691406 4.585938 11.503906 4.585938 11.3125 C 4.585938 9.863281 5.769531 8.6875 7.214844 8.6875 C 8.214844 8.6875 9.113281 9.242188 9.5625 10.136719 C 9.667969 10.34375 9.914062 10.421875 10.121094 10.320312 C 10.324219 10.21875 10.40625 9.972656 10.300781 9.765625 C 9.714844 8.585938 8.53125 7.855469 7.214844 7.855469 C 7.199219 7.855469 7.1875 7.859375 7.171875 7.859375 C 7.003906 7.546875 6.902344 7.207031 6.902344 6.851562 C 6.902344 5.648438 7.878906 4.675781 9.082031 4.675781 C 9.871094 4.675781 10.597656 5.105469 10.984375 5.792969 C 11.160156 6.117188 11.253906 6.484375 11.253906 6.851562 C 11.253906 7.078125 11.445312 7.265625 11.671875 7.265625 C 11.898438 7.265625 12.089844 7.078125 12.089844 6.851562 C 12.089844 6.339844 11.957031 5.835938 11.710938 5.394531 C 11.375 4.800781 10.867188 4.355469 10.269531 4.09375 C 11.003906 3.582031 11.867188 3.273438 11.886719 3.265625 C 12.472656 3.046875 12.945312 3.042969 13.277344 3.261719 C 13.886719 3.65625 13.964844 4.675781 13.964844 4.675781 Z M 13.964844 9.09375 " fill-opacity="1" fill-rule="nonzero"/></g><path fill="#ab0518" d="M 9.484375 13.140625 C 9.441406 12.917969 9.226562 12.769531 9 12.816406 C 8.773438 12.859375 8.628906 13.074219 8.675781 13.300781 C 8.832031 14.132812 9.273438 14.863281 9.898438 15.417969 C 9.882812 15.46875 9.875 15.519531 9.878906 15.574219 C 9.949219 16.773438 9.035156 17.8125 7.835938 17.882812 C 7.605469 17.894531 7.433594 18.09375 7.445312 18.320312 C 7.460938 18.539062 7.644531 18.710938 7.859375 18.710938 C 7.867188 18.710938 7.875 18.710938 7.890625 18.710938 C 9.394531 18.621094 10.5625 17.425781 10.6875 15.960938 C 11.21875 16.226562 11.792969 16.367188 12.378906 16.367188 C 12.621094 16.367188 12.859375 16.34375 13.09375 16.296875 C 13.316406 16.257812 13.464844 16.039062 13.421875 15.8125 C 13.382812 15.59375 13.15625 15.441406 12.9375 15.484375 C 12.160156 15.636719 11.375 15.472656 10.730469 15.03125 C 10.074219 14.585938 9.632812 13.914062 9.484375 13.140625 Z M 9.484375 13.140625 " fill-opacity="1" fill-rule="nonzero"/><path fill="#ab0518" d="M 18.039062 21.882812 C 17.828125 21.960938 17.71875 22.199219 17.796875 22.414062 C 17.875 22.628906 18.117188 22.742188 18.332031 22.664062 C 19.457031 22.246094 20.714844 22.820312 21.132812 23.9375 C 21.214844 24.148438 21.449219 24.261719 21.664062 24.183594 C 21.882812 24.105469 21.988281 23.863281 21.90625 23.644531 C 21.332031 22.097656 19.59375 21.304688 18.039062 21.882812 Z M 18.039062 21.882812 " fill-opacity="1" fill-rule="nonzero"/><g clip-path="url(#b86e7bc6e2)"><path fill="#ab0518" d="M 28.121094 15.175781 C 28.121094 13.945312 27.453125 12.816406 26.402344 12.199219 C 26.476562 11.910156 26.53125 11.613281 26.53125 11.3125 C 26.53125 9.722656 25.453125 8.394531 23.992188 7.992188 C 24.136719 7.632812 24.21875 7.25 24.21875 6.855469 C 24.21875 5.195312 22.871094 3.847656 21.214844 3.847656 C 21.15625 3.847656 21.105469 3.855469 21.042969 3.859375 C 20.140625 3.003906 18.75 2.507812 18.6875 2.488281 C 17.847656 2.171875 17.128906 2.195312 16.558594 2.566406 C 15.59375 3.199219 15.503906 4.597656 15.503906 4.652344 L 15.5 11.152344 C 15.5 11.152344 15.5 11.15625 15.5 11.15625 L 15.5 22.273438 C 15.5 22.28125 15.5 22.28125 15.5 22.28125 L 15.5 25.21875 C 15.5 26.871094 17.085938 28.222656 19.03125 28.222656 C 20.59375 28.222656 21.9375 27.347656 22.390625 26.105469 C 22.46875 26.113281 22.550781 26.128906 22.625 26.128906 C 24.285156 26.128906 25.632812 24.785156 25.632812 23.125 C 25.632812 22.765625 25.566406 22.410156 25.441406 22.082031 C 26.695312 21.542969 27.535156 20.300781 27.535156 18.910156 C 27.535156 18.414062 27.425781 17.925781 27.21875 17.476562 C 27.777344 16.863281 28.121094 16.0625 28.121094 15.175781 Z M 24.769531 21.445312 C 24.753906 21.453125 24.746094 21.457031 24.730469 21.464844 C 24.714844 21.472656 24.691406 21.472656 24.675781 21.484375 C 24.664062 21.488281 24.660156 21.496094 24.648438 21.5 C 24.628906 21.523438 24.605469 21.542969 24.585938 21.566406 C 24.570312 21.582031 24.550781 21.597656 24.542969 21.613281 C 24.523438 21.644531 24.515625 21.667969 24.5 21.703125 C 24.492188 21.714844 24.484375 21.734375 24.480469 21.757812 C 24.472656 21.785156 24.472656 21.816406 24.472656 21.851562 C 24.472656 21.875 24.472656 21.894531 24.480469 21.910156 C 24.480469 21.929688 24.472656 21.945312 24.480469 21.957031 C 24.484375 21.96875 24.496094 21.972656 24.5 21.984375 C 24.511719 22.007812 24.511719 22.03125 24.523438 22.046875 C 24.707031 22.375 24.808594 22.742188 24.808594 23.125 C 24.808594 24.324219 23.824219 25.300781 22.625 25.300781 C 22.480469 25.300781 22.332031 25.289062 22.191406 25.253906 L 22.183594 25.253906 C 21.964844 25.214844 21.742188 25.355469 21.691406 25.578125 C 21.472656 26.628906 20.351562 27.394531 19.03125 27.394531 C 17.535156 27.394531 16.328125 26.414062 16.328125 25.21875 L 16.328125 22.273438 C 16.328125 21.078125 17.304688 20.097656 18.503906 20.097656 C 18.734375 20.097656 18.921875 19.914062 18.921875 19.679688 C 18.921875 19.453125 18.738281 19.265625 18.503906 19.265625 C 17.644531 19.265625 16.871094 19.632812 16.328125 20.210938 L 16.328125 11.152344 C 16.328125 9.953125 17.304688 8.976562 18.503906 8.976562 C 18.734375 8.976562 18.921875 8.789062 18.921875 8.5625 C 18.921875 8.332031 18.738281 8.144531 18.503906 8.144531 C 17.644531 8.144531 16.871094 8.507812 16.328125 9.085938 L 16.328125 4.675781 C 16.328125 4.675781 16.398438 3.65625 17.019531 3.261719 C 17.347656 3.042969 17.820312 3.046875 18.410156 3.265625 C 18.425781 3.273438 19.289062 3.582031 20.027344 4.09375 C 19.425781 4.355469 18.910156 4.800781 18.582031 5.394531 C 18.339844 5.839844 18.207031 6.34375 18.207031 6.851562 C 18.207031 7.078125 18.390625 7.265625 18.625 7.265625 C 18.851562 7.265625 19.039062 7.078125 19.039062 6.851562 C 19.039062 6.484375 19.132812 6.117188 19.3125 5.792969 C 19.691406 5.105469 20.421875 4.675781 21.214844 4.675781 C 22.410156 4.675781 23.390625 5.652344 23.390625 6.855469 C 23.390625 7.210938 23.285156 7.550781 23.125 7.863281 C 23.105469 7.863281 23.089844 7.859375 23.078125 7.859375 C 21.757812 7.859375 20.578125 8.585938 19.988281 9.769531 C 19.886719 9.972656 19.96875 10.21875 20.171875 10.320312 C 20.375 10.421875 20.625 10.339844 20.726562 10.136719 C 21.175781 9.242188 22.074219 8.6875 23.078125 8.6875 C 24.523438 8.6875 25.703125 9.863281 25.703125 11.3125 C 25.703125 11.503906 25.671875 11.691406 25.632812 11.878906 C 25.324219 11.785156 25.003906 11.722656 24.660156 11.722656 C 24.433594 11.722656 24.242188 11.90625 24.242188 12.136719 C 24.242188 12.363281 24.433594 12.550781 24.660156 12.550781 C 25.042969 12.550781 25.40625 12.628906 25.746094 12.78125 C 25.753906 12.785156 25.757812 12.792969 25.765625 12.792969 L 25.769531 12.792969 C 26.695312 13.222656 27.285156 14.15625 27.285156 15.175781 C 27.285156 16.625 26.109375 17.800781 24.660156 17.800781 C 24.433594 17.800781 24.242188 17.984375 24.242188 18.21875 C 24.242188 18.445312 24.433594 18.636719 24.660156 18.636719 C 25.359375 18.636719 26.003906 18.421875 26.542969 18.070312 C 26.640625 18.332031 26.703125 18.621094 26.703125 18.910156 C 26.703125 20.089844 25.910156 21.132812 24.769531 21.445312 Z M 24.769531 21.445312 " fill-opacity="1" fill-rule="nonzero"/></g><path fill="#ab0518" d="M 22.457031 17.882812 C 21.257812 17.8125 20.34375 16.773438 20.410156 15.574219 C 20.417969 15.519531 20.410156 15.46875 20.390625 15.417969 C 21.019531 14.863281 21.460938 14.136719 21.621094 13.300781 C 21.664062 13.074219 21.519531 12.859375 21.292969 12.816406 C 21.066406 12.769531 20.847656 12.917969 20.804688 13.140625 C 20.65625 13.914062 20.214844 14.585938 19.5625 15.03125 C 18.910156 15.472656 18.125 15.636719 17.355469 15.484375 C 17.136719 15.441406 16.90625 15.59375 16.867188 15.8125 C 16.824219 16.039062 16.972656 16.257812 17.199219 16.300781 C 17.4375 16.34375 17.675781 16.367188 17.914062 16.367188 C 18.5 16.367188 19.078125 16.230469 19.605469 15.960938 C 19.730469 17.425781 20.894531 18.625 22.40625 18.714844 C 22.417969 18.714844 22.421875 18.714844 22.429688 18.714844 C 22.648438 18.714844 22.832031 18.542969 22.847656 18.320312 C 22.855469 18.09375 22.6875 17.894531 22.457031 17.882812 Z M 22.457031 17.882812 " fill-opacity="1" fill-rule="nonzero"/></svg>